<mxfile host="app.diagrams.net" agent="Mozilla/5.0 (Windows NT 10.0; Win64; x64) AppleWebKit/537.36 (KHTML, like Gecko) Chrome/130.0.0.0 Safari/537.36 Edg/130.0.0.0" version="24.7.17">
  <diagram name="PÃ¡gina-1" id="7G_4iHXvqfSIgGpNIgua">
    <mxGraphModel dx="3158" dy="2134" grid="1" gridSize="10" guides="1" tooltips="1" connect="1" arrows="1" fold="1" page="1" pageScale="1" pageWidth="827" pageHeight="1169" math="0" shadow="0">
      <root>
        <mxCell id="0" />
        <mxCell id="1" parent="0" />
        <mxCell id="ZYq4n5y1qO-wRykseq7i-134" value="" style="rounded=0;whiteSpace=wrap;html=1;fillColor=none;" vertex="1" parent="1">
          <mxGeometry x="-730" y="-140" width="1330" height="690" as="geometry" />
        </mxCell>
        <mxCell id="ZYq4n5y1qO-wRykseq7i-113" value="" style="rounded=0;whiteSpace=wrap;html=1;fillColor=none;" vertex="1" parent="1">
          <mxGeometry x="-201" y="-60" width="330" height="580" as="geometry" />
        </mxCell>
        <mxCell id="ZYq4n5y1qO-wRykseq7i-130" value="" style="rounded=0;whiteSpace=wrap;html=1;fillColor=none;" vertex="1" parent="1">
          <mxGeometry x="-580" y="-60" width="330" height="580" as="geometry" />
        </mxCell>
        <mxCell id="ZYq4n5y1qO-wRykseq7i-62" value="" style="rounded=0;whiteSpace=wrap;html=1;fillColor=none;" vertex="1" parent="1">
          <mxGeometry x="770" y="-250" width="1720" height="510" as="geometry" />
        </mxCell>
        <mxCell id="ZYq4n5y1qO-wRykseq7i-6" value="Enemy" style="swimlane;fontStyle=1;align=center;verticalAlign=top;childLayout=stackLayout;horizontal=1;startSize=26;horizontalStack=0;resizeParent=1;resizeParentMax=0;resizeLast=0;collapsible=1;marginBottom=0;whiteSpace=wrap;html=1;" vertex="1" parent="1">
          <mxGeometry x="1760" y="-50" width="160" height="86" as="geometry" />
        </mxCell>
        <mxCell id="ZYq4n5y1qO-wRykseq7i-7" value="+ field: type" style="text;strokeColor=none;fillColor=none;align=left;verticalAlign=top;spacingLeft=4;spacingRight=4;overflow=hidden;rotatable=0;points=[[0,0.5],[1,0.5]];portConstraint=eastwest;whiteSpace=wrap;html=1;" vertex="1" parent="ZYq4n5y1qO-wRykseq7i-6">
          <mxGeometry y="26" width="160" height="26" as="geometry" />
        </mxCell>
        <mxCell id="ZYq4n5y1qO-wRykseq7i-8" value="" style="line;strokeWidth=1;fillColor=none;align=left;verticalAlign=middle;spacingTop=-1;spacingLeft=3;spacingRight=3;rotatable=0;labelPosition=right;points=[];portConstraint=eastwest;strokeColor=inherit;" vertex="1" parent="ZYq4n5y1qO-wRykseq7i-6">
          <mxGeometry y="52" width="160" height="8" as="geometry" />
        </mxCell>
        <mxCell id="ZYq4n5y1qO-wRykseq7i-9" value="+ method(type): type" style="text;strokeColor=none;fillColor=none;align=left;verticalAlign=top;spacingLeft=4;spacingRight=4;overflow=hidden;rotatable=0;points=[[0,0.5],[1,0.5]];portConstraint=eastwest;whiteSpace=wrap;html=1;" vertex="1" parent="ZYq4n5y1qO-wRykseq7i-6">
          <mxGeometry y="60" width="160" height="26" as="geometry" />
        </mxCell>
        <mxCell id="ZYq4n5y1qO-wRykseq7i-10" value="Defense" style="swimlane;fontStyle=1;align=center;verticalAlign=top;childLayout=stackLayout;horizontal=1;startSize=26;horizontalStack=0;resizeParent=1;resizeParentMax=0;resizeLast=0;collapsible=1;marginBottom=0;whiteSpace=wrap;html=1;" vertex="1" parent="1">
          <mxGeometry x="1020" y="-54" width="160" height="86" as="geometry" />
        </mxCell>
        <mxCell id="ZYq4n5y1qO-wRykseq7i-11" value="+ field: type" style="text;strokeColor=none;fillColor=none;align=left;verticalAlign=top;spacingLeft=4;spacingRight=4;overflow=hidden;rotatable=0;points=[[0,0.5],[1,0.5]];portConstraint=eastwest;whiteSpace=wrap;html=1;" vertex="1" parent="ZYq4n5y1qO-wRykseq7i-10">
          <mxGeometry y="26" width="160" height="26" as="geometry" />
        </mxCell>
        <mxCell id="ZYq4n5y1qO-wRykseq7i-12" value="" style="line;strokeWidth=1;fillColor=none;align=left;verticalAlign=middle;spacingTop=-1;spacingLeft=3;spacingRight=3;rotatable=0;labelPosition=right;points=[];portConstraint=eastwest;strokeColor=inherit;" vertex="1" parent="ZYq4n5y1qO-wRykseq7i-10">
          <mxGeometry y="52" width="160" height="8" as="geometry" />
        </mxCell>
        <mxCell id="ZYq4n5y1qO-wRykseq7i-13" value="+ method(type): type" style="text;strokeColor=none;fillColor=none;align=left;verticalAlign=top;spacingLeft=4;spacingRight=4;overflow=hidden;rotatable=0;points=[[0,0.5],[1,0.5]];portConstraint=eastwest;whiteSpace=wrap;html=1;" vertex="1" parent="ZYq4n5y1qO-wRykseq7i-10">
          <mxGeometry y="60" width="160" height="26" as="geometry" />
        </mxCell>
        <mxCell id="ZYq4n5y1qO-wRykseq7i-14" value="Soldier" style="swimlane;fontStyle=1;align=center;verticalAlign=top;childLayout=stackLayout;horizontal=1;startSize=26;horizontalStack=0;resizeParent=1;resizeParentMax=0;resizeLast=0;collapsible=1;marginBottom=0;whiteSpace=wrap;html=1;" vertex="1" parent="1">
          <mxGeometry x="1540" y="130" width="160" height="86" as="geometry" />
        </mxCell>
        <mxCell id="ZYq4n5y1qO-wRykseq7i-15" value="+ field: type" style="text;strokeColor=none;fillColor=none;align=left;verticalAlign=top;spacingLeft=4;spacingRight=4;overflow=hidden;rotatable=0;points=[[0,0.5],[1,0.5]];portConstraint=eastwest;whiteSpace=wrap;html=1;" vertex="1" parent="ZYq4n5y1qO-wRykseq7i-14">
          <mxGeometry y="26" width="160" height="26" as="geometry" />
        </mxCell>
        <mxCell id="ZYq4n5y1qO-wRykseq7i-16" value="" style="line;strokeWidth=1;fillColor=none;align=left;verticalAlign=middle;spacingTop=-1;spacingLeft=3;spacingRight=3;rotatable=0;labelPosition=right;points=[];portConstraint=eastwest;strokeColor=inherit;" vertex="1" parent="ZYq4n5y1qO-wRykseq7i-14">
          <mxGeometry y="52" width="160" height="8" as="geometry" />
        </mxCell>
        <mxCell id="ZYq4n5y1qO-wRykseq7i-17" value="+ method(type): type" style="text;strokeColor=none;fillColor=none;align=left;verticalAlign=top;spacingLeft=4;spacingRight=4;overflow=hidden;rotatable=0;points=[[0,0.5],[1,0.5]];portConstraint=eastwest;whiteSpace=wrap;html=1;" vertex="1" parent="ZYq4n5y1qO-wRykseq7i-14">
          <mxGeometry y="60" width="160" height="26" as="geometry" />
        </mxCell>
        <mxCell id="ZYq4n5y1qO-wRykseq7i-18" value="Captain" style="swimlane;fontStyle=1;align=center;verticalAlign=top;childLayout=stackLayout;horizontal=1;startSize=26;horizontalStack=0;resizeParent=1;resizeParentMax=0;resizeLast=0;collapsible=1;marginBottom=0;whiteSpace=wrap;html=1;" vertex="1" parent="1">
          <mxGeometry x="1760" y="130" width="160" height="86" as="geometry" />
        </mxCell>
        <mxCell id="ZYq4n5y1qO-wRykseq7i-19" value="+ field: type" style="text;strokeColor=none;fillColor=none;align=left;verticalAlign=top;spacingLeft=4;spacingRight=4;overflow=hidden;rotatable=0;points=[[0,0.5],[1,0.5]];portConstraint=eastwest;whiteSpace=wrap;html=1;" vertex="1" parent="ZYq4n5y1qO-wRykseq7i-18">
          <mxGeometry y="26" width="160" height="26" as="geometry" />
        </mxCell>
        <mxCell id="ZYq4n5y1qO-wRykseq7i-20" value="" style="line;strokeWidth=1;fillColor=none;align=left;verticalAlign=middle;spacingTop=-1;spacingLeft=3;spacingRight=3;rotatable=0;labelPosition=right;points=[];portConstraint=eastwest;strokeColor=inherit;" vertex="1" parent="ZYq4n5y1qO-wRykseq7i-18">
          <mxGeometry y="52" width="160" height="8" as="geometry" />
        </mxCell>
        <mxCell id="ZYq4n5y1qO-wRykseq7i-21" value="+ method(type): type" style="text;strokeColor=none;fillColor=none;align=left;verticalAlign=top;spacingLeft=4;spacingRight=4;overflow=hidden;rotatable=0;points=[[0,0.5],[1,0.5]];portConstraint=eastwest;whiteSpace=wrap;html=1;" vertex="1" parent="ZYq4n5y1qO-wRykseq7i-18">
          <mxGeometry y="60" width="160" height="26" as="geometry" />
        </mxCell>
        <mxCell id="ZYq4n5y1qO-wRykseq7i-22" value="General" style="swimlane;fontStyle=1;align=center;verticalAlign=top;childLayout=stackLayout;horizontal=1;startSize=26;horizontalStack=0;resizeParent=1;resizeParentMax=0;resizeLast=0;collapsible=1;marginBottom=0;whiteSpace=wrap;html=1;" vertex="1" parent="1">
          <mxGeometry x="1990" y="130" width="160" height="86" as="geometry" />
        </mxCell>
        <mxCell id="ZYq4n5y1qO-wRykseq7i-23" value="+ field: type" style="text;strokeColor=none;fillColor=none;align=left;verticalAlign=top;spacingLeft=4;spacingRight=4;overflow=hidden;rotatable=0;points=[[0,0.5],[1,0.5]];portConstraint=eastwest;whiteSpace=wrap;html=1;" vertex="1" parent="ZYq4n5y1qO-wRykseq7i-22">
          <mxGeometry y="26" width="160" height="26" as="geometry" />
        </mxCell>
        <mxCell id="ZYq4n5y1qO-wRykseq7i-24" value="" style="line;strokeWidth=1;fillColor=none;align=left;verticalAlign=middle;spacingTop=-1;spacingLeft=3;spacingRight=3;rotatable=0;labelPosition=right;points=[];portConstraint=eastwest;strokeColor=inherit;" vertex="1" parent="ZYq4n5y1qO-wRykseq7i-22">
          <mxGeometry y="52" width="160" height="8" as="geometry" />
        </mxCell>
        <mxCell id="ZYq4n5y1qO-wRykseq7i-25" value="+ method(type): type" style="text;strokeColor=none;fillColor=none;align=left;verticalAlign=top;spacingLeft=4;spacingRight=4;overflow=hidden;rotatable=0;points=[[0,0.5],[1,0.5]];portConstraint=eastwest;whiteSpace=wrap;html=1;" vertex="1" parent="ZYq4n5y1qO-wRykseq7i-22">
          <mxGeometry y="60" width="160" height="26" as="geometry" />
        </mxCell>
        <mxCell id="ZYq4n5y1qO-wRykseq7i-43" style="edgeStyle=orthogonalEdgeStyle;rounded=0;orthogonalLoop=1;jettySize=auto;html=1;entryX=0.5;entryY=1;entryDx=0;entryDy=0;" edge="1" parent="1" source="ZYq4n5y1qO-wRykseq7i-26" target="ZYq4n5y1qO-wRykseq7i-10">
          <mxGeometry relative="1" as="geometry">
            <Array as="points">
              <mxPoint x="890" y="86" />
              <mxPoint x="1100" y="86" />
            </Array>
          </mxGeometry>
        </mxCell>
        <mxCell id="ZYq4n5y1qO-wRykseq7i-26" value="Cannon" style="swimlane;fontStyle=1;align=center;verticalAlign=top;childLayout=stackLayout;horizontal=1;startSize=26;horizontalStack=0;resizeParent=1;resizeParentMax=0;resizeLast=0;collapsible=1;marginBottom=0;whiteSpace=wrap;html=1;" vertex="1" parent="1">
          <mxGeometry x="810" y="136" width="160" height="86" as="geometry" />
        </mxCell>
        <mxCell id="ZYq4n5y1qO-wRykseq7i-27" value="+ field: type" style="text;strokeColor=none;fillColor=none;align=left;verticalAlign=top;spacingLeft=4;spacingRight=4;overflow=hidden;rotatable=0;points=[[0,0.5],[1,0.5]];portConstraint=eastwest;whiteSpace=wrap;html=1;" vertex="1" parent="ZYq4n5y1qO-wRykseq7i-26">
          <mxGeometry y="26" width="160" height="26" as="geometry" />
        </mxCell>
        <mxCell id="ZYq4n5y1qO-wRykseq7i-28" value="" style="line;strokeWidth=1;fillColor=none;align=left;verticalAlign=middle;spacingTop=-1;spacingLeft=3;spacingRight=3;rotatable=0;labelPosition=right;points=[];portConstraint=eastwest;strokeColor=inherit;" vertex="1" parent="ZYq4n5y1qO-wRykseq7i-26">
          <mxGeometry y="52" width="160" height="8" as="geometry" />
        </mxCell>
        <mxCell id="ZYq4n5y1qO-wRykseq7i-29" value="+ method(type): type" style="text;strokeColor=none;fillColor=none;align=left;verticalAlign=top;spacingLeft=4;spacingRight=4;overflow=hidden;rotatable=0;points=[[0,0.5],[1,0.5]];portConstraint=eastwest;whiteSpace=wrap;html=1;" vertex="1" parent="ZYq4n5y1qO-wRykseq7i-26">
          <mxGeometry y="60" width="160" height="26" as="geometry" />
        </mxCell>
        <mxCell id="ZYq4n5y1qO-wRykseq7i-30" value="Tank" style="swimlane;fontStyle=1;align=center;verticalAlign=top;childLayout=stackLayout;horizontal=1;startSize=26;horizontalStack=0;resizeParent=1;resizeParentMax=0;resizeLast=0;collapsible=1;marginBottom=0;whiteSpace=wrap;html=1;" vertex="1" parent="1">
          <mxGeometry x="1020" y="136" width="160" height="86" as="geometry" />
        </mxCell>
        <mxCell id="ZYq4n5y1qO-wRykseq7i-31" value="+ field: type" style="text;strokeColor=none;fillColor=none;align=left;verticalAlign=top;spacingLeft=4;spacingRight=4;overflow=hidden;rotatable=0;points=[[0,0.5],[1,0.5]];portConstraint=eastwest;whiteSpace=wrap;html=1;" vertex="1" parent="ZYq4n5y1qO-wRykseq7i-30">
          <mxGeometry y="26" width="160" height="26" as="geometry" />
        </mxCell>
        <mxCell id="ZYq4n5y1qO-wRykseq7i-32" value="" style="line;strokeWidth=1;fillColor=none;align=left;verticalAlign=middle;spacingTop=-1;spacingLeft=3;spacingRight=3;rotatable=0;labelPosition=right;points=[];portConstraint=eastwest;strokeColor=inherit;" vertex="1" parent="ZYq4n5y1qO-wRykseq7i-30">
          <mxGeometry y="52" width="160" height="8" as="geometry" />
        </mxCell>
        <mxCell id="ZYq4n5y1qO-wRykseq7i-33" value="+ method(type): type" style="text;strokeColor=none;fillColor=none;align=left;verticalAlign=top;spacingLeft=4;spacingRight=4;overflow=hidden;rotatable=0;points=[[0,0.5],[1,0.5]];portConstraint=eastwest;whiteSpace=wrap;html=1;" vertex="1" parent="ZYq4n5y1qO-wRykseq7i-30">
          <mxGeometry y="60" width="160" height="26" as="geometry" />
        </mxCell>
        <mxCell id="ZYq4n5y1qO-wRykseq7i-34" value="Crossbow" style="swimlane;fontStyle=1;align=center;verticalAlign=top;childLayout=stackLayout;horizontal=1;startSize=26;horizontalStack=0;resizeParent=1;resizeParentMax=0;resizeLast=0;collapsible=1;marginBottom=0;whiteSpace=wrap;html=1;" vertex="1" parent="1">
          <mxGeometry x="1250" y="136" width="160" height="86" as="geometry" />
        </mxCell>
        <mxCell id="ZYq4n5y1qO-wRykseq7i-35" value="+ field: type" style="text;strokeColor=none;fillColor=none;align=left;verticalAlign=top;spacingLeft=4;spacingRight=4;overflow=hidden;rotatable=0;points=[[0,0.5],[1,0.5]];portConstraint=eastwest;whiteSpace=wrap;html=1;" vertex="1" parent="ZYq4n5y1qO-wRykseq7i-34">
          <mxGeometry y="26" width="160" height="26" as="geometry" />
        </mxCell>
        <mxCell id="ZYq4n5y1qO-wRykseq7i-36" value="" style="line;strokeWidth=1;fillColor=none;align=left;verticalAlign=middle;spacingTop=-1;spacingLeft=3;spacingRight=3;rotatable=0;labelPosition=right;points=[];portConstraint=eastwest;strokeColor=inherit;" vertex="1" parent="ZYq4n5y1qO-wRykseq7i-34">
          <mxGeometry y="52" width="160" height="8" as="geometry" />
        </mxCell>
        <mxCell id="ZYq4n5y1qO-wRykseq7i-37" value="+ method(type): type" style="text;strokeColor=none;fillColor=none;align=left;verticalAlign=top;spacingLeft=4;spacingRight=4;overflow=hidden;rotatable=0;points=[[0,0.5],[1,0.5]];portConstraint=eastwest;whiteSpace=wrap;html=1;" vertex="1" parent="ZYq4n5y1qO-wRykseq7i-34">
          <mxGeometry y="60" width="160" height="26" as="geometry" />
        </mxCell>
        <mxCell id="ZYq4n5y1qO-wRykseq7i-42" style="edgeStyle=orthogonalEdgeStyle;rounded=0;orthogonalLoop=1;jettySize=auto;html=1;entryX=0.503;entryY=1;entryDx=0;entryDy=0;entryPerimeter=0;" edge="1" parent="1" source="ZYq4n5y1qO-wRykseq7i-30" target="ZYq4n5y1qO-wRykseq7i-13">
          <mxGeometry relative="1" as="geometry" />
        </mxCell>
        <mxCell id="ZYq4n5y1qO-wRykseq7i-44" style="edgeStyle=orthogonalEdgeStyle;rounded=0;orthogonalLoop=1;jettySize=auto;html=1;entryX=0.5;entryY=1.034;entryDx=0;entryDy=0;entryPerimeter=0;" edge="1" parent="1" source="ZYq4n5y1qO-wRykseq7i-34" target="ZYq4n5y1qO-wRykseq7i-13">
          <mxGeometry relative="1" as="geometry">
            <Array as="points">
              <mxPoint x="1330" y="86" />
              <mxPoint x="1100" y="86" />
            </Array>
          </mxGeometry>
        </mxCell>
        <mxCell id="ZYq4n5y1qO-wRykseq7i-45" value="" style="rounded=0;whiteSpace=wrap;html=1;fillColor=none;" vertex="1" parent="1">
          <mxGeometry x="-600" y="-690" width="916" height="370" as="geometry" />
        </mxCell>
        <mxCell id="ZYq4n5y1qO-wRykseq7i-46" value="Events" style="swimlane;fontStyle=0;childLayout=stackLayout;horizontal=1;startSize=52;fillColor=none;horizontalStack=0;resizeParent=1;resizeParentMax=0;resizeLast=0;collapsible=1;marginBottom=0;whiteSpace=wrap;html=1;" vertex="1" parent="1">
          <mxGeometry x="-74" y="-420" width="140" height="52" as="geometry" />
        </mxCell>
        <mxCell id="ZYq4n5y1qO-wRykseq7i-47" value="AIAgent" style="swimlane;fontStyle=0;childLayout=stackLayout;horizontal=1;startSize=26;fillColor=none;horizontalStack=0;resizeParent=1;resizeParentMax=0;resizeLast=0;collapsible=1;marginBottom=0;whiteSpace=wrap;html=1;" vertex="1" parent="1">
          <mxGeometry x="86" y="-414" width="140" height="52" as="geometry" />
        </mxCell>
        <mxCell id="ZYq4n5y1qO-wRykseq7i-48" style="edgeStyle=orthogonalEdgeStyle;rounded=0;orthogonalLoop=1;jettySize=auto;html=1;endArrow=none;endFill=0;" edge="1" parent="1" source="ZYq4n5y1qO-wRykseq7i-49">
          <mxGeometry relative="1" as="geometry">
            <mxPoint x="-194" y="-584" as="targetPoint" />
            <Array as="points">
              <mxPoint x="-354" y="-564" />
              <mxPoint x="-194" y="-564" />
            </Array>
          </mxGeometry>
        </mxCell>
        <mxCell id="ZYq4n5y1qO-wRykseq7i-49" value="DataManager" style="swimlane;fontStyle=0;childLayout=stackLayout;horizontal=1;startSize=26;fillColor=none;horizontalStack=0;resizeParent=1;resizeParentMax=0;resizeLast=0;collapsible=1;marginBottom=0;whiteSpace=wrap;html=1;" vertex="1" parent="1">
          <mxGeometry x="-424" y="-534" width="140" height="52" as="geometry" />
        </mxCell>
        <mxCell id="ZYq4n5y1qO-wRykseq7i-50" style="edgeStyle=orthogonalEdgeStyle;rounded=0;orthogonalLoop=1;jettySize=auto;html=1;entryX=0.25;entryY=1;entryDx=0;entryDy=0;endArrow=none;endFill=0;" edge="1" parent="1" source="ZYq4n5y1qO-wRykseq7i-51" target="ZYq4n5y1qO-wRykseq7i-49">
          <mxGeometry relative="1" as="geometry" />
        </mxCell>
        <mxCell id="ZYq4n5y1qO-wRykseq7i-51" value="Score" style="swimlane;fontStyle=0;childLayout=stackLayout;horizontal=1;startSize=26;fillColor=none;horizontalStack=0;resizeParent=1;resizeParentMax=0;resizeLast=0;collapsible=1;marginBottom=0;whiteSpace=wrap;html=1;" vertex="1" parent="1">
          <mxGeometry x="-544" y="-454" width="140" height="52" as="geometry" />
        </mxCell>
        <mxCell id="ZYq4n5y1qO-wRykseq7i-52" style="edgeStyle=orthogonalEdgeStyle;rounded=0;orthogonalLoop=1;jettySize=auto;html=1;endArrow=none;endFill=0;" edge="1" parent="1" source="ZYq4n5y1qO-wRykseq7i-53">
          <mxGeometry relative="1" as="geometry">
            <mxPoint x="-344" y="-484" as="targetPoint" />
          </mxGeometry>
        </mxCell>
        <mxCell id="ZYq4n5y1qO-wRykseq7i-53" value="Money" style="swimlane;fontStyle=0;childLayout=stackLayout;horizontal=1;startSize=26;fillColor=none;horizontalStack=0;resizeParent=1;resizeParentMax=0;resizeLast=0;collapsible=1;marginBottom=0;whiteSpace=wrap;html=1;" vertex="1" parent="1">
          <mxGeometry x="-384" y="-454" width="140" height="52" as="geometry" />
        </mxCell>
        <mxCell id="ZYq4n5y1qO-wRykseq7i-54" style="edgeStyle=orthogonalEdgeStyle;rounded=0;orthogonalLoop=1;jettySize=auto;html=1;endArrow=none;endFill=0;" edge="1" parent="1" source="ZYq4n5y1qO-wRykseq7i-55">
          <mxGeometry relative="1" as="geometry">
            <mxPoint x="-164" y="-584" as="targetPoint" />
          </mxGeometry>
        </mxCell>
        <mxCell id="ZYq4n5y1qO-wRykseq7i-55" value="SceneManager" style="swimlane;fontStyle=0;childLayout=stackLayout;horizontal=1;startSize=26;fillColor=none;horizontalStack=0;resizeParent=1;resizeParentMax=0;resizeLast=0;collapsible=1;marginBottom=0;whiteSpace=wrap;html=1;" vertex="1" parent="1">
          <mxGeometry x="-214" y="-534" width="140" height="52" as="geometry" />
        </mxCell>
        <mxCell id="ZYq4n5y1qO-wRykseq7i-56" style="edgeStyle=orthogonalEdgeStyle;rounded=0;orthogonalLoop=1;jettySize=auto;html=1;endArrow=none;endFill=0;" edge="1" parent="1" source="ZYq4n5y1qO-wRykseq7i-57">
          <mxGeometry relative="1" as="geometry">
            <mxPoint x="-134" y="-584" as="targetPoint" />
            <Array as="points">
              <mxPoint x="40" y="-564" />
              <mxPoint x="-134" y="-564" />
            </Array>
          </mxGeometry>
        </mxCell>
        <mxCell id="ZYq4n5y1qO-wRykseq7i-57" value="StateMachine" style="swimlane;fontStyle=0;childLayout=stackLayout;horizontal=1;startSize=26;fillColor=none;horizontalStack=0;resizeParent=1;resizeParentMax=0;resizeLast=0;collapsible=1;marginBottom=0;whiteSpace=wrap;html=1;" vertex="1" parent="1">
          <mxGeometry x="-30" y="-534" width="140" height="52" as="geometry" />
        </mxCell>
        <mxCell id="ZYq4n5y1qO-wRykseq7i-58" style="edgeStyle=orthogonalEdgeStyle;rounded=0;orthogonalLoop=1;jettySize=auto;html=1;entryX=1;entryY=0.75;entryDx=0;entryDy=0;endArrow=none;endFill=0;" edge="1" parent="1" source="ZYq4n5y1qO-wRykseq7i-59" target="ZYq4n5y1qO-wRykseq7i-60">
          <mxGeometry relative="1" as="geometry">
            <Array as="points">
              <mxPoint x="206" y="-595" />
            </Array>
          </mxGeometry>
        </mxCell>
        <mxCell id="ZYq4n5y1qO-wRykseq7i-59" value="SoundManager" style="swimlane;fontStyle=0;childLayout=stackLayout;horizontal=1;startSize=26;fillColor=none;horizontalStack=0;resizeParent=1;resizeParentMax=0;resizeLast=0;collapsible=1;marginBottom=0;whiteSpace=wrap;html=1;" vertex="1" parent="1">
          <mxGeometry x="136" y="-534" width="140" height="52" as="geometry" />
        </mxCell>
        <mxCell id="ZYq4n5y1qO-wRykseq7i-60" value="GameManager" style="swimlane;fontStyle=0;childLayout=stackLayout;horizontal=1;startSize=26;fillColor=none;horizontalStack=0;resizeParent=1;resizeParentMax=0;resizeLast=0;collapsible=1;marginBottom=0;whiteSpace=wrap;html=1;" vertex="1" parent="1">
          <mxGeometry x="-224" y="-634" width="140" height="52" as="geometry" />
        </mxCell>
        <mxCell id="ZYq4n5y1qO-wRykseq7i-61" value="Managers Layer" style="html=1;whiteSpace=wrap;" vertex="1" parent="1">
          <mxGeometry x="-600" y="-730" width="150" height="40" as="geometry" />
        </mxCell>
        <mxCell id="ZYq4n5y1qO-wRykseq7i-65" style="edgeStyle=orthogonalEdgeStyle;rounded=0;orthogonalLoop=1;jettySize=auto;html=1;entryX=0.5;entryY=1;entryDx=0;entryDy=0;endArrow=none;endFill=0;" edge="1" parent="1" source="ZYq4n5y1qO-wRykseq7i-66">
          <mxGeometry relative="1" as="geometry">
            <Array as="points">
              <mxPoint x="1140" y="-360" />
              <mxPoint x="1130" y="-360" />
            </Array>
            <mxPoint x="1130" y="-418" as="targetPoint" />
          </mxGeometry>
        </mxCell>
        <mxCell id="ZYq4n5y1qO-wRykseq7i-69" style="edgeStyle=orthogonalEdgeStyle;rounded=0;orthogonalLoop=1;jettySize=auto;html=1;entryX=0.5;entryY=1;entryDx=0;entryDy=0;endArrow=none;endFill=0;" edge="1" parent="1" source="ZYq4n5y1qO-wRykseq7i-70">
          <mxGeometry relative="1" as="geometry">
            <mxPoint x="1130" y="-548" as="targetPoint" />
          </mxGeometry>
        </mxCell>
        <mxCell id="ZYq4n5y1qO-wRykseq7i-73" value="Agent Layer" style="html=1;whiteSpace=wrap;" vertex="1" parent="1">
          <mxGeometry x="770" y="-290" width="150" height="40" as="geometry" />
        </mxCell>
        <mxCell id="ZYq4n5y1qO-wRykseq7i-83" value="DefenseControler" style="swimlane;fontStyle=1;align=center;verticalAlign=top;childLayout=stackLayout;horizontal=1;startSize=26;horizontalStack=0;resizeParent=1;resizeParentMax=0;resizeLast=0;collapsible=1;marginBottom=0;whiteSpace=wrap;html=1;" vertex="1" parent="1">
          <mxGeometry x="1020" y="-214" width="160" height="86" as="geometry" />
        </mxCell>
        <mxCell id="ZYq4n5y1qO-wRykseq7i-84" value="+ field: type" style="text;strokeColor=none;fillColor=none;align=left;verticalAlign=top;spacingLeft=4;spacingRight=4;overflow=hidden;rotatable=0;points=[[0,0.5],[1,0.5]];portConstraint=eastwest;whiteSpace=wrap;html=1;" vertex="1" parent="ZYq4n5y1qO-wRykseq7i-83">
          <mxGeometry y="26" width="160" height="26" as="geometry" />
        </mxCell>
        <mxCell id="ZYq4n5y1qO-wRykseq7i-85" value="" style="line;strokeWidth=1;fillColor=none;align=left;verticalAlign=middle;spacingTop=-1;spacingLeft=3;spacingRight=3;rotatable=0;labelPosition=right;points=[];portConstraint=eastwest;strokeColor=inherit;" vertex="1" parent="ZYq4n5y1qO-wRykseq7i-83">
          <mxGeometry y="52" width="160" height="8" as="geometry" />
        </mxCell>
        <mxCell id="ZYq4n5y1qO-wRykseq7i-86" value="+ method(type): type" style="text;strokeColor=none;fillColor=none;align=left;verticalAlign=top;spacingLeft=4;spacingRight=4;overflow=hidden;rotatable=0;points=[[0,0.5],[1,0.5]];portConstraint=eastwest;whiteSpace=wrap;html=1;" vertex="1" parent="ZYq4n5y1qO-wRykseq7i-83">
          <mxGeometry y="60" width="160" height="26" as="geometry" />
        </mxCell>
        <mxCell id="ZYq4n5y1qO-wRykseq7i-88" style="edgeStyle=orthogonalEdgeStyle;rounded=0;orthogonalLoop=1;jettySize=auto;html=1;entryX=0.498;entryY=1.032;entryDx=0;entryDy=0;entryPerimeter=0;endArrow=none;endFill=0;" edge="1" parent="1" source="ZYq4n5y1qO-wRykseq7i-10" target="ZYq4n5y1qO-wRykseq7i-86">
          <mxGeometry relative="1" as="geometry" />
        </mxCell>
        <mxCell id="ZYq4n5y1qO-wRykseq7i-89" value="EnemyControler" style="swimlane;fontStyle=1;align=center;verticalAlign=top;childLayout=stackLayout;horizontal=1;startSize=26;horizontalStack=0;resizeParent=1;resizeParentMax=0;resizeLast=0;collapsible=1;marginBottom=0;whiteSpace=wrap;html=1;" vertex="1" parent="1">
          <mxGeometry x="1760" y="-200" width="160" height="86" as="geometry" />
        </mxCell>
        <mxCell id="ZYq4n5y1qO-wRykseq7i-90" value="+ field: type" style="text;strokeColor=none;fillColor=none;align=left;verticalAlign=top;spacingLeft=4;spacingRight=4;overflow=hidden;rotatable=0;points=[[0,0.5],[1,0.5]];portConstraint=eastwest;whiteSpace=wrap;html=1;" vertex="1" parent="ZYq4n5y1qO-wRykseq7i-89">
          <mxGeometry y="26" width="160" height="26" as="geometry" />
        </mxCell>
        <mxCell id="ZYq4n5y1qO-wRykseq7i-91" value="" style="line;strokeWidth=1;fillColor=none;align=left;verticalAlign=middle;spacingTop=-1;spacingLeft=3;spacingRight=3;rotatable=0;labelPosition=right;points=[];portConstraint=eastwest;strokeColor=inherit;" vertex="1" parent="ZYq4n5y1qO-wRykseq7i-89">
          <mxGeometry y="52" width="160" height="8" as="geometry" />
        </mxCell>
        <mxCell id="ZYq4n5y1qO-wRykseq7i-92" value="+ method(type): type" style="text;strokeColor=none;fillColor=none;align=left;verticalAlign=top;spacingLeft=4;spacingRight=4;overflow=hidden;rotatable=0;points=[[0,0.5],[1,0.5]];portConstraint=eastwest;whiteSpace=wrap;html=1;" vertex="1" parent="ZYq4n5y1qO-wRykseq7i-89">
          <mxGeometry y="60" width="160" height="26" as="geometry" />
        </mxCell>
        <mxCell id="ZYq4n5y1qO-wRykseq7i-94" style="edgeStyle=orthogonalEdgeStyle;rounded=0;orthogonalLoop=1;jettySize=auto;html=1;entryX=0.496;entryY=1.023;entryDx=0;entryDy=0;entryPerimeter=0;" edge="1" parent="1" source="ZYq4n5y1qO-wRykseq7i-18" target="ZYq4n5y1qO-wRykseq7i-9">
          <mxGeometry relative="1" as="geometry" />
        </mxCell>
        <mxCell id="ZYq4n5y1qO-wRykseq7i-95" style="edgeStyle=orthogonalEdgeStyle;rounded=0;orthogonalLoop=1;jettySize=auto;html=1;entryX=0.501;entryY=1.023;entryDx=0;entryDy=0;entryPerimeter=0;" edge="1" parent="1" source="ZYq4n5y1qO-wRykseq7i-14" target="ZYq4n5y1qO-wRykseq7i-9">
          <mxGeometry relative="1" as="geometry" />
        </mxCell>
        <mxCell id="ZYq4n5y1qO-wRykseq7i-96" style="edgeStyle=orthogonalEdgeStyle;rounded=0;orthogonalLoop=1;jettySize=auto;html=1;entryX=0.498;entryY=0.972;entryDx=0;entryDy=0;entryPerimeter=0;" edge="1" parent="1" source="ZYq4n5y1qO-wRykseq7i-22" target="ZYq4n5y1qO-wRykseq7i-9">
          <mxGeometry relative="1" as="geometry" />
        </mxCell>
        <mxCell id="ZYq4n5y1qO-wRykseq7i-97" style="edgeStyle=orthogonalEdgeStyle;rounded=0;orthogonalLoop=1;jettySize=auto;html=1;entryX=0.498;entryY=0.969;entryDx=0;entryDy=0;entryPerimeter=0;endArrow=none;endFill=0;" edge="1" parent="1" source="ZYq4n5y1qO-wRykseq7i-6" target="ZYq4n5y1qO-wRykseq7i-92">
          <mxGeometry relative="1" as="geometry" />
        </mxCell>
        <mxCell id="ZYq4n5y1qO-wRykseq7i-102" value="Tower" style="swimlane;fontStyle=1;align=center;verticalAlign=top;childLayout=stackLayout;horizontal=1;startSize=26;horizontalStack=0;resizeParent=1;resizeParentMax=0;resizeLast=0;collapsible=1;marginBottom=0;whiteSpace=wrap;html=1;" vertex="1" parent="1">
          <mxGeometry x="2290" y="-50" width="160" height="86" as="geometry" />
        </mxCell>
        <mxCell id="ZYq4n5y1qO-wRykseq7i-103" value="+ field: type" style="text;strokeColor=none;fillColor=none;align=left;verticalAlign=top;spacingLeft=4;spacingRight=4;overflow=hidden;rotatable=0;points=[[0,0.5],[1,0.5]];portConstraint=eastwest;whiteSpace=wrap;html=1;" vertex="1" parent="ZYq4n5y1qO-wRykseq7i-102">
          <mxGeometry y="26" width="160" height="26" as="geometry" />
        </mxCell>
        <mxCell id="ZYq4n5y1qO-wRykseq7i-104" value="" style="line;strokeWidth=1;fillColor=none;align=left;verticalAlign=middle;spacingTop=-1;spacingLeft=3;spacingRight=3;rotatable=0;labelPosition=right;points=[];portConstraint=eastwest;strokeColor=inherit;" vertex="1" parent="ZYq4n5y1qO-wRykseq7i-102">
          <mxGeometry y="52" width="160" height="8" as="geometry" />
        </mxCell>
        <mxCell id="ZYq4n5y1qO-wRykseq7i-105" value="+ method(type): type" style="text;strokeColor=none;fillColor=none;align=left;verticalAlign=top;spacingLeft=4;spacingRight=4;overflow=hidden;rotatable=0;points=[[0,0.5],[1,0.5]];portConstraint=eastwest;whiteSpace=wrap;html=1;" vertex="1" parent="ZYq4n5y1qO-wRykseq7i-102">
          <mxGeometry y="60" width="160" height="26" as="geometry" />
        </mxCell>
        <mxCell id="ZYq4n5y1qO-wRykseq7i-106" value="TowerControler" style="swimlane;fontStyle=1;align=center;verticalAlign=top;childLayout=stackLayout;horizontal=1;startSize=26;horizontalStack=0;resizeParent=1;resizeParentMax=0;resizeLast=0;collapsible=1;marginBottom=0;whiteSpace=wrap;html=1;" vertex="1" parent="1">
          <mxGeometry x="2290" y="-200" width="160" height="86" as="geometry" />
        </mxCell>
        <mxCell id="ZYq4n5y1qO-wRykseq7i-107" value="+ field: type" style="text;strokeColor=none;fillColor=none;align=left;verticalAlign=top;spacingLeft=4;spacingRight=4;overflow=hidden;rotatable=0;points=[[0,0.5],[1,0.5]];portConstraint=eastwest;whiteSpace=wrap;html=1;" vertex="1" parent="ZYq4n5y1qO-wRykseq7i-106">
          <mxGeometry y="26" width="160" height="26" as="geometry" />
        </mxCell>
        <mxCell id="ZYq4n5y1qO-wRykseq7i-108" value="" style="line;strokeWidth=1;fillColor=none;align=left;verticalAlign=middle;spacingTop=-1;spacingLeft=3;spacingRight=3;rotatable=0;labelPosition=right;points=[];portConstraint=eastwest;strokeColor=inherit;" vertex="1" parent="ZYq4n5y1qO-wRykseq7i-106">
          <mxGeometry y="52" width="160" height="8" as="geometry" />
        </mxCell>
        <mxCell id="ZYq4n5y1qO-wRykseq7i-109" value="+ method(type): type" style="text;strokeColor=none;fillColor=none;align=left;verticalAlign=top;spacingLeft=4;spacingRight=4;overflow=hidden;rotatable=0;points=[[0,0.5],[1,0.5]];portConstraint=eastwest;whiteSpace=wrap;html=1;" vertex="1" parent="ZYq4n5y1qO-wRykseq7i-106">
          <mxGeometry y="60" width="160" height="26" as="geometry" />
        </mxCell>
        <mxCell id="ZYq4n5y1qO-wRykseq7i-111" style="edgeStyle=orthogonalEdgeStyle;rounded=0;orthogonalLoop=1;jettySize=auto;html=1;entryX=0.501;entryY=0.964;entryDx=0;entryDy=0;entryPerimeter=0;endArrow=none;endFill=0;" edge="1" parent="1" source="ZYq4n5y1qO-wRykseq7i-102" target="ZYq4n5y1qO-wRykseq7i-109">
          <mxGeometry relative="1" as="geometry" />
        </mxCell>
        <mxCell id="ZYq4n5y1qO-wRykseq7i-114" value="Scene" style="swimlane;fontStyle=0;childLayout=stackLayout;horizontal=1;startSize=52;fillColor=none;horizontalStack=0;resizeParent=1;resizeParentMax=0;resizeLast=0;collapsible=1;marginBottom=0;whiteSpace=wrap;html=1;" vertex="1" parent="1">
          <mxGeometry x="-570" y="-38" width="140" height="52" as="geometry" />
        </mxCell>
        <mxCell id="ZYq4n5y1qO-wRykseq7i-128" value="Main Loop" style="html=1;whiteSpace=wrap;" vertex="1" parent="1">
          <mxGeometry x="-201" y="-100" width="150" height="40" as="geometry" />
        </mxCell>
        <mxCell id="ZYq4n5y1qO-wRykseq7i-157" style="edgeStyle=orthogonalEdgeStyle;rounded=0;orthogonalLoop=1;jettySize=auto;html=1;exitX=0;exitY=0.5;exitDx=0;exitDy=0;entryX=0.5;entryY=1;entryDx=0;entryDy=0;" edge="1" parent="1" source="ZYq4n5y1qO-wRykseq7i-129" target="ZYq4n5y1qO-wRykseq7i-155">
          <mxGeometry relative="1" as="geometry" />
        </mxCell>
        <mxCell id="ZYq4n5y1qO-wRykseq7i-129" value="Enter" style="swimlane;fontStyle=0;childLayout=stackLayout;horizontal=1;startSize=26;fillColor=none;horizontalStack=0;resizeParent=1;resizeParentMax=0;resizeLast=0;collapsible=1;marginBottom=0;whiteSpace=wrap;html=1;" vertex="1" parent="1">
          <mxGeometry x="-51" y="270" width="140" height="50" as="geometry" />
        </mxCell>
        <mxCell id="ZYq4n5y1qO-wRykseq7i-131" value="Start Scene" style="html=1;whiteSpace=wrap;" vertex="1" parent="1">
          <mxGeometry x="-580" y="-100" width="150" height="40" as="geometry" />
        </mxCell>
        <mxCell id="ZYq4n5y1qO-wRykseq7i-132" value="" style="rounded=0;whiteSpace=wrap;html=1;fillColor=none;" vertex="1" parent="1">
          <mxGeometry x="209" y="-60" width="330" height="580" as="geometry" />
        </mxCell>
        <mxCell id="ZYq4n5y1qO-wRykseq7i-133" value="End Scene" style="html=1;whiteSpace=wrap;" vertex="1" parent="1">
          <mxGeometry x="209" y="-100" width="150" height="40" as="geometry" />
        </mxCell>
        <mxCell id="ZYq4n5y1qO-wRykseq7i-135" value="Scene Layer" style="html=1;whiteSpace=wrap;" vertex="1" parent="1">
          <mxGeometry x="-730" y="-180" width="150" height="40" as="geometry" />
        </mxCell>
        <mxCell id="ZYq4n5y1qO-wRykseq7i-136" value="Scene" style="swimlane;fontStyle=0;childLayout=stackLayout;horizontal=1;startSize=52;fillColor=none;horizontalStack=0;resizeParent=1;resizeParentMax=0;resizeLast=0;collapsible=1;marginBottom=0;whiteSpace=wrap;html=1;" vertex="1" parent="1">
          <mxGeometry x="-181" y="-38" width="140" height="52" as="geometry" />
        </mxCell>
        <mxCell id="ZYq4n5y1qO-wRykseq7i-137" value="Scene" style="swimlane;fontStyle=0;childLayout=stackLayout;horizontal=1;startSize=52;fillColor=none;horizontalStack=0;resizeParent=1;resizeParentMax=0;resizeLast=0;collapsible=1;marginBottom=0;whiteSpace=wrap;html=1;" vertex="1" parent="1">
          <mxGeometry x="230" y="-28" width="140" height="52" as="geometry" />
        </mxCell>
        <mxCell id="ZYq4n5y1qO-wRykseq7i-139" value="Button" style="swimlane;fontStyle=0;childLayout=stackLayout;horizontal=1;startSize=26;fillColor=none;horizontalStack=0;resizeParent=1;resizeParentMax=0;resizeLast=0;collapsible=1;marginBottom=0;whiteSpace=wrap;html=1;" vertex="1" parent="1">
          <mxGeometry x="-544" y="170" width="140" height="52" as="geometry" />
        </mxCell>
        <mxCell id="ZYq4n5y1qO-wRykseq7i-144" style="edgeStyle=orthogonalEdgeStyle;rounded=0;orthogonalLoop=1;jettySize=auto;html=1;entryX=0.5;entryY=1;entryDx=0;entryDy=0;" edge="1" parent="1" source="ZYq4n5y1qO-wRykseq7i-140" target="ZYq4n5y1qO-wRykseq7i-139">
          <mxGeometry relative="1" as="geometry">
            <Array as="points">
              <mxPoint x="-474" y="394" />
            </Array>
          </mxGeometry>
        </mxCell>
        <mxCell id="ZYq4n5y1qO-wRykseq7i-140" value="PlayButton" style="swimlane;fontStyle=0;childLayout=stackLayout;horizontal=1;startSize=26;fillColor=none;horizontalStack=0;resizeParent=1;resizeParentMax=0;resizeLast=0;collapsible=1;marginBottom=0;whiteSpace=wrap;html=1;" vertex="1" parent="1">
          <mxGeometry x="-444" y="368" width="140" height="52" as="geometry" />
        </mxCell>
        <mxCell id="ZYq4n5y1qO-wRykseq7i-143" style="edgeStyle=orthogonalEdgeStyle;rounded=0;orthogonalLoop=1;jettySize=auto;html=1;exitX=0;exitY=0.5;exitDx=0;exitDy=0;entryX=0.5;entryY=1;entryDx=0;entryDy=0;" edge="1" parent="1" source="ZYq4n5y1qO-wRykseq7i-141" target="ZYq4n5y1qO-wRykseq7i-139">
          <mxGeometry relative="1" as="geometry" />
        </mxCell>
        <mxCell id="ZYq4n5y1qO-wRykseq7i-141" value="ExitButton" style="swimlane;fontStyle=0;childLayout=stackLayout;horizontal=1;startSize=26;fillColor=none;horizontalStack=0;resizeParent=1;resizeParentMax=0;resizeLast=0;collapsible=1;marginBottom=0;whiteSpace=wrap;html=1;" vertex="1" parent="1">
          <mxGeometry x="-444" y="268" width="140" height="52" as="geometry" />
        </mxCell>
        <mxCell id="ZYq4n5y1qO-wRykseq7i-145" value="GameTItle" style="swimlane;fontStyle=0;childLayout=stackLayout;horizontal=1;startSize=26;fillColor=none;horizontalStack=0;resizeParent=1;resizeParentMax=0;resizeLast=0;collapsible=1;marginBottom=0;whiteSpace=wrap;html=1;" vertex="1" parent="1">
          <mxGeometry x="-544" y="70" width="140" height="52" as="geometry" />
        </mxCell>
        <mxCell id="ZYq4n5y1qO-wRykseq7i-146" value="EndTitle" style="swimlane;fontStyle=0;childLayout=stackLayout;horizontal=1;startSize=26;fillColor=none;horizontalStack=0;resizeParent=1;resizeParentMax=0;resizeLast=0;collapsible=1;marginBottom=0;whiteSpace=wrap;html=1;" vertex="1" parent="1">
          <mxGeometry x="300" y="70" width="140" height="52" as="geometry" />
        </mxCell>
        <mxCell id="ZYq4n5y1qO-wRykseq7i-153" style="edgeStyle=orthogonalEdgeStyle;rounded=0;orthogonalLoop=1;jettySize=auto;html=1;entryX=0.5;entryY=1;entryDx=0;entryDy=0;" edge="1" parent="1" source="ZYq4n5y1qO-wRykseq7i-149" target="ZYq4n5y1qO-wRykseq7i-139">
          <mxGeometry relative="1" as="geometry">
            <mxPoint x="-518" y="110" as="targetPoint" />
            <Array as="points">
              <mxPoint x="246" y="293" />
              <mxPoint x="246" y="480" />
              <mxPoint x="-474" y="480" />
            </Array>
          </mxGeometry>
        </mxCell>
        <mxCell id="ZYq4n5y1qO-wRykseq7i-149" value="ReplayButton" style="swimlane;fontStyle=0;childLayout=stackLayout;horizontal=1;startSize=26;fillColor=none;horizontalStack=0;resizeParent=1;resizeParentMax=0;resizeLast=0;collapsible=1;marginBottom=0;whiteSpace=wrap;html=1;" vertex="1" parent="1">
          <mxGeometry x="306" y="267" width="140" height="52" as="geometry" />
        </mxCell>
        <mxCell id="ZYq4n5y1qO-wRykseq7i-152" style="edgeStyle=orthogonalEdgeStyle;rounded=0;orthogonalLoop=1;jettySize=auto;html=1;exitX=0;exitY=0.5;exitDx=0;exitDy=0;entryX=0.5;entryY=1;entryDx=0;entryDy=0;" edge="1" parent="1" source="ZYq4n5y1qO-wRykseq7i-151" target="ZYq4n5y1qO-wRykseq7i-139">
          <mxGeometry relative="1" as="geometry">
            <mxPoint x="-518" y="110" as="targetPoint" />
            <Array as="points">
              <mxPoint x="246" y="193" />
              <mxPoint x="246" y="480" />
              <mxPoint x="-474" y="480" />
            </Array>
          </mxGeometry>
        </mxCell>
        <mxCell id="ZYq4n5y1qO-wRykseq7i-151" value="EndButton" style="swimlane;fontStyle=0;childLayout=stackLayout;horizontal=1;startSize=26;fillColor=none;horizontalStack=0;resizeParent=1;resizeParentMax=0;resizeLast=0;collapsible=1;marginBottom=0;whiteSpace=wrap;html=1;" vertex="1" parent="1">
          <mxGeometry x="306" y="167" width="140" height="52" as="geometry" />
        </mxCell>
        <mxCell id="ZYq4n5y1qO-wRykseq7i-154" value="PlayerApp" style="swimlane;fontStyle=0;childLayout=stackLayout;horizontal=1;startSize=26;fillColor=none;horizontalStack=0;resizeParent=1;resizeParentMax=0;resizeLast=0;collapsible=1;marginBottom=0;whiteSpace=wrap;html=1;" vertex="1" parent="1">
          <mxGeometry x="-171" y="60" width="140" height="52" as="geometry" />
        </mxCell>
        <mxCell id="ZYq4n5y1qO-wRykseq7i-155" value="Path" style="swimlane;fontStyle=0;childLayout=stackLayout;horizontal=1;startSize=26;fillColor=none;horizontalStack=0;resizeParent=1;resizeParentMax=0;resizeLast=0;collapsible=1;marginBottom=0;whiteSpace=wrap;html=1;" vertex="1" parent="1">
          <mxGeometry x="-150" y="174" width="140" height="52" as="geometry" />
        </mxCell>
        <mxCell id="ZYq4n5y1qO-wRykseq7i-159" style="edgeStyle=orthogonalEdgeStyle;rounded=0;orthogonalLoop=1;jettySize=auto;html=1;exitX=0;exitY=0.5;exitDx=0;exitDy=0;entryX=0.5;entryY=1;entryDx=0;entryDy=0;" edge="1" parent="1" source="ZYq4n5y1qO-wRykseq7i-156" target="ZYq4n5y1qO-wRykseq7i-155">
          <mxGeometry relative="1" as="geometry" />
        </mxCell>
        <mxCell id="ZYq4n5y1qO-wRykseq7i-156" value="Exit" style="swimlane;fontStyle=0;childLayout=stackLayout;horizontal=1;startSize=26;fillColor=none;horizontalStack=0;resizeParent=1;resizeParentMax=0;resizeLast=0;collapsible=1;marginBottom=0;whiteSpace=wrap;html=1;" vertex="1" parent="1">
          <mxGeometry x="-51" y="368" width="140" height="52" as="geometry" />
        </mxCell>
        <mxCell id="ZYq4n5y1qO-wRykseq7i-165" style="edgeStyle=orthogonalEdgeStyle;rounded=0;orthogonalLoop=1;jettySize=auto;html=1;entryX=1;entryY=0.5;entryDx=0;entryDy=0;endArrow=none;endFill=0;" edge="1" parent="1" source="ZYq4n5y1qO-wRykseq7i-164" target="ZYq4n5y1qO-wRykseq7i-11">
          <mxGeometry relative="1" as="geometry" />
        </mxCell>
        <mxCell id="ZYq4n5y1qO-wRykseq7i-164" value="&lt;div&gt;DefenseFactory&lt;/div&gt;" style="swimlane;fontStyle=0;childLayout=stackLayout;horizontal=1;startSize=40;fillColor=none;horizontalStack=0;resizeParent=1;resizeParentMax=0;resizeLast=0;collapsible=1;marginBottom=0;whiteSpace=wrap;html=1;" vertex="1" parent="1">
          <mxGeometry x="1280" y="-35" width="130" height="40" as="geometry" />
        </mxCell>
        <mxCell id="ZYq4n5y1qO-wRykseq7i-167" style="edgeStyle=orthogonalEdgeStyle;rounded=0;orthogonalLoop=1;jettySize=auto;html=1;entryX=0;entryY=0.5;entryDx=0;entryDy=0;endArrow=none;endFill=0;" edge="1" parent="1" source="ZYq4n5y1qO-wRykseq7i-166" target="ZYq4n5y1qO-wRykseq7i-7">
          <mxGeometry relative="1" as="geometry" />
        </mxCell>
        <mxCell id="ZYq4n5y1qO-wRykseq7i-166" value="&lt;div&gt;EnemyFactory&lt;/div&gt;" style="swimlane;fontStyle=0;childLayout=stackLayout;horizontal=1;startSize=40;fillColor=none;horizontalStack=0;resizeParent=1;resizeParentMax=0;resizeLast=0;collapsible=1;marginBottom=0;whiteSpace=wrap;html=1;" vertex="1" parent="1">
          <mxGeometry x="1500" y="-32" width="130" height="40" as="geometry" />
        </mxCell>
        <mxCell id="ZYq4n5y1qO-wRykseq7i-169" style="edgeStyle=orthogonalEdgeStyle;rounded=0;orthogonalLoop=1;jettySize=auto;html=1;entryX=0;entryY=0.5;entryDx=0;entryDy=0;" edge="1" parent="1" source="ZYq4n5y1qO-wRykseq7i-168" target="ZYq4n5y1qO-wRykseq7i-103">
          <mxGeometry relative="1" as="geometry" />
        </mxCell>
        <mxCell id="ZYq4n5y1qO-wRykseq7i-168" value="&lt;div&gt;TowerSingleton&lt;/div&gt;" style="swimlane;fontStyle=0;childLayout=stackLayout;horizontal=1;startSize=40;fillColor=none;horizontalStack=0;resizeParent=1;resizeParentMax=0;resizeLast=0;collapsible=1;marginBottom=0;whiteSpace=wrap;html=1;" vertex="1" parent="1">
          <mxGeometry x="2068" y="-32" width="130" height="40" as="geometry" />
        </mxCell>
      </root>
    </mxGraphModel>
  </diagram>
</mxfile>
